<svg width="22" height="22" viewBox="0 0 22 22" fill="none" xmlns="http://www.w3.org/2000/svg">
<path d="M21.5067 17.3865L18.1092 13.9886C17.4325 13.3145 16.3118 13.335 15.6115 14.0356L13.8998 15.7469C13.7916 15.6873 13.6797 15.625 13.562 15.559C12.4811 14.9601 11.0017 14.1392 9.44489 12.5812C7.88348 11.02 7.06183 9.53833 6.46107 8.45671C6.39767 8.34212 6.33693 8.23164 6.27695 8.12672L7.42576 6.97963L7.99055 6.41414C8.69193 5.71257 8.71127 4.59221 8.03612 3.91623L4.63857 0.517923C3.96342 -0.1571 2.84224 -0.136622 2.14086 0.564947L1.18331 1.52799L1.20948 1.55397C0.8884 1.96366 0.620097 2.43618 0.420435 2.94573C0.236384 3.43076 0.121794 3.89361 0.0693975 4.3574C-0.379227 8.0766 1.32034 11.4757 5.93274 16.0881C12.3085 22.4634 17.4465 21.9818 17.6682 21.9583C18.1509 21.9006 18.6136 21.7853 19.0837 21.6027C19.5889 21.4053 20.0611 21.1374 20.4705 20.817L20.4914 20.8356L21.4615 19.8857C22.1614 19.1843 22.1816 18.0635 21.5067 17.3865Z" fill="#F35F3D"/>
</svg>
